<svg xmlns="http://www.w3.org/2000/svg" width="27" height="24" viewBox="0 0 27 24"><g><g opacity=".5"><path fill="#45413e" d="M21.602 2.498H4.921L2.134 22.212h22.253zm1.41-1.643l3.25 23h-26l3.25-23zM18.85 7.243c-.466 3.883-2.746 6.755-5.589 6.755-2.842 0-5.122-2.872-5.589-6.755a1.635 1.635 0 0 1-.91-1.46c0-.907.726-1.643 1.624-1.643.898 0 1.625.736 1.625 1.644 0 .561-.296 1.033-.723 1.33.393 2.95 2.053 5.24 3.973 5.24 1.922 0 3.58-2.29 3.974-5.24-.427-.297-.724-.769-.724-1.33 0-.908.727-1.644 1.625-1.644s1.625.736 1.625 1.644c0 .645-.376 1.19-.91 1.459z"/></g></g></svg>