<svg xmlns="http://www.w3.org/2000/svg" width="26" height="23" viewBox="0 0 26 23"><g><g opacity=".5"><path fill="#45413e" d="M25.813 7.65c0 2.171-1.116 3.861-2.089 5.091l-6.756 7.882c-1.096 1.276-2.54 1.98-4.065 1.98-1.591 0-3.125-.796-4.207-2.18L2.69 12.736C1.807 11.507.815 9.846.815 7.65.815 3.765 3.823.605 7.519.605c1.568 0 3.093.582 4.294 1.637.764.671 1.199.945 1.501.945.303 0 .738-.274 1.5-.945A6.512 6.512 0 0 1 19.11.605c3.696 0 6.704 3.16 6.704 7.045zm-1.62 0c0-2.945-2.28-5.342-5.084-5.342a4.935 4.935 0 0 0-3.253 1.24c-.967.85-1.693 1.342-2.542 1.342-.848 0-1.574-.492-2.542-1.342a4.93 4.93 0 0 0-3.253-1.24c-2.803 0-5.084 2.397-5.084 5.343 0 1.69.818 3.042 1.53 4.032l5.984 7.66c.785 1.004 1.834 1.557 2.955 1.557 1.06 0 2.076-.503 2.86-1.417l6.735-7.856c.827-1.047 1.694-2.36 1.694-3.977z"/></g></g></svg>