<svg xmlns="http://www.w3.org/2000/svg" width="24" height="24" viewBox="0 0 24 24"><g><g opacity=".5"><path fill="#45413e" d="M5.88 8.512c0-2.082.654-4.047 1.842-5.531C8.946 1.449 10.59.605 12.349.605c3.566 0 6.469 3.548 6.469 7.906 0 4.36-2.902 7.906-6.47 7.906-3.566 0-6.468-3.547-6.468-7.905zm1.437 0c0 3.566 2.258 6.469 5.032 6.469s5.031-2.903 5.031-6.47c0-3.566-2.257-6.468-5.031-6.468-2.774 0-5.032 2.902-5.032 6.469zm16.532 12.937a2.159 2.159 0 0 1-2.156 2.157H3.005a2.16 2.16 0 0 1-2.156-2.157 6.476 6.476 0 0 1 6.469-6.469.718.718 0 1 1 0 1.437 5.038 5.038 0 0 0-5.032 5.032.72.72 0 0 0 .719.719h18.688a.72.72 0 0 0 .718-.719 5.037 5.037 0 0 0-5.03-5.032.718.718 0 1 1 0-1.437 6.476 6.476 0 0 1 6.468 6.47z"/></g></g></svg>