<svg xmlns="http://www.w3.org/2000/svg" width="24" height="24" viewBox="0 0 24 24"><g><g opacity=".5"><path fill="#45413e" d="M23.849 9.23a8.625 8.625 0 0 1-12.663 7.62l-5.994 5.993v.002c-.46.469-1.099.76-1.807.76a2.537 2.537 0 0 1-1.776-4.344l-.005-.004 5.998-5.996A8.578 8.578 0 0 1 6.599 9.23a8.626 8.626 0 0 1 17.25 0zM10.09 16.15a8.698 8.698 0 0 1-1.792-1.795L2.5 20.153l.007.005a1.264 1.264 0 1 0 1.788 1.788zm12.321-6.92a7.188 7.188 0 1 0-14.376.002A7.188 7.188 0 0 0 22.41 9.23zm-6.828-4.672a.36.36 0 0 1-.359.36 4.312 4.312 0 0 0-4.313 4.312.36.36 0 0 1-.718 0 5.031 5.031 0 0 1 5.031-5.031c.198 0 .36.16.36.359z"/></g></g></svg>